{"title":"Marley 2012 DVDrip English Klam","uid":8605931,"size":2318114490,"categoryP":"video","categoryS":"movies","magnet":"?xt=urn:btih:1869fa7234534138bc85068d855c4ff66176f1ed&amp;dn=Marley+2012+DVDrip+English+Klam&amp;tr=udp%3A%2F%2Ftracker.openbittorrent.com%3A80&amp;tr=udp%3A%2F%2Fopen.demonii.com%3A1337&amp;tr=udp%3A%2F%2Ftracker.coppersurfer.tk%3A6969&amp;tr=udp%3A%2F%2Fexodus.desync.com%3A6969","seeders":21,"leechers":3,"uploader":"Klambake","files":-1,"time":1372013955,"description":"With: Bob Marley, Rita Marley and Bunny Livingston\n\nDe documentaire richt zich op het leven van een van de meest invloedrijke muzikanten van de twintigste eeuw: Robert Nesta Marley, beter bekend als Bob Marley. De in Jamaica geboren rasta heeft bijna eigenhandig de reggaemuziek internationaal bekend gemaakt en maakte deel uit van de legendarische band The Wailers, met Bunny Livingston en Peter Tosh. In 1981 kwam hij om het leven na zijn tragische strijd tegen kanker.\n\nA documentary on the life, music, and legacy of Bob Marley.\n &lt;a href=&quot;\nhttp://www.imdb.com/title/tt1183919&quot; rel=&quot;nofollow&quot; target=&quot;_NEW&quot;&gt;\nhttp://www.imdb.com/title/tt1183919&lt;/a&gt;\t\n\n------------------------ Dutch Friends ------------------------\n---------------------------------------------------------------\n- Bezoek ook eens mijn vrienden op: &lt;a href=&quot; http://www.Film-Test.nl&quot; rel=&quot;nofollow&quot; target=&quot;_NEW&quot;&gt; http://www.Film-Test.nl&lt;/a&gt; --\n----- voor mijn Nederlandse Sync. ondertitels ---- en meer ----\n------- http://www.Film-Test.nl ---- Over Films en meer -------\n---------------------------------------------------------------\n\nGeneral:\n\nComplete name                    : MarleyMarley.avi\nFormat                           : AVI\nFormat/Info                      : Audio Video Interleave\nFile size                        : 2.15 GiB\nDuration                         : 2h 19mn\nOverall bit rate                 : 2 216 Kbps\n\nVideo:\n\nFormat                           : MPEG-4 Visual\nFormat profile                   : Simple@L3\nFormat settings, BVOP            : No\nFormat settings, QPel            : No\nFormat settings, GMC             : No warppoints\nFormat settings, Matrix          : Default (H.263)\nCodec ID                         : XVID\nCodec ID/Hint                    : XviD\nDuration                         : 2h 19mn\nBit rate                         : 1 758 Kbps\nWidth                            : 652 pixels\nHeight                           : 352 pixels\nDisplay aspect ratio             : 1.852\nFrame rate                       : 25.000 fps\nColor space                      : YUV\nChroma subsampling               : 4:2:0\nBit depth                        : 8 bits\nScan type                        : Progressive\nCompression mode                 : Lossy\nBits/(Pixel*Frame)               : 0.306\nStream size                      : 1.71 GiB (79%)\nWriting library                  : XviD 1.1.2 (UTC 2006-11-01)\n\nAudio:\n\nFormat                           : AC-3\nFormat/Info                      : Audio Coding 3\nMode extension                   : CM (complete main)\nCodec ID                         : 2000\nDuration                         : 2h 19mn\nBit rate mode                    : Constant\nBit rate                         : 448 Kbps\nChannel(s)                       : 6 channels\nChannel positions                : Front: L C R, Side: L R, LFE\nSampling rate                    : 48.0 KHz\nBit depth                        : 16 bits\nCompression mode                 : Lossy\nStream size                      : 446 MiB (20%)\nAlignment                        : Aligned on interleaves\nInterleave, duration             : 32 ms (0.80 video frame)\nInterleave, preload duration     : 32 ms","torrent":{"xt":"urn:btih:1869fa7234534138bc85068d855c4ff66176f1ed","amp;dn":"Marley+2012+DVDrip+English+Klam","amp;tr":["udp%3A%2F%2Ftracker.openbittorrent.com%3A80","udp%3A%2F%2Fopen.demonii.com%3A1337","udp%3A%2F%2Ftracker.coppersurfer.tk%3A6969","udp%3A%2F%2Fexodus.desync.com%3A6969"],"infoHash":"1869fa7234534138bc85068d855c4ff66176f1ed","infoHashBuffer":{"type":"Buffer","data":[24,105,250,114,52,83,65,56,188,133,6,141,133,92,79,246,97,118,241,237]},"announce":[],"urlList":[]}}